<svg xmlns="http://www.w3.org/2000/svg" viewBox="0 0 280 312" width="280" height="312"><defs>
  <linearGradient id="wall" x1="0" y1="0" x2="0.6" y2="1">
    <stop offset="0" stop-color="#7791AC"/><stop offset="1" stop-color="#5F7A96"/></linearGradient>
  <linearGradient id="roof" x1="0" y1="0" x2="0.35" y2="1">
    <stop offset="0" stop-color="#35503F"/><stop offset="1" stop-color="#22362A"/></linearGradient>
  <linearGradient id="glow" x1="0" y1="0" x2="0" y2="1">
    <stop offset="0" stop-color="#FFF3C4"/><stop offset="1" stop-color="#FFD98A"/></linearGradient>
</defs><ellipse cx="140" cy="298" rx="102" ry="9" fill="#1e2b1c" opacity="0.16"/><rect x="52" y="146" width="176" height="132" rx="6" fill="url(#wall)"/><line x1="54" y1="160" x2="226" y2="160" stroke="#5F7A96" stroke-width="2" opacity="0.55"/><line x1="54" y1="172" x2="226" y2="172" stroke="#5F7A96" stroke-width="2" opacity="0.55"/><line x1="54" y1="184" x2="226" y2="184" stroke="#5F7A96" stroke-width="2" opacity="0.55"/><line x1="54" y1="196" x2="226" y2="196" stroke="#5F7A96" stroke-width="2" opacity="0.55"/><line x1="54" y1="208" x2="226" y2="208" stroke="#5F7A96" stroke-width="2" opacity="0.55"/><line x1="54" y1="220" x2="226" y2="220" stroke="#5F7A96" stroke-width="2" opacity="0.55"/><line x1="54" y1="232" x2="226" y2="232" stroke="#5F7A96" stroke-width="2" opacity="0.55"/><line x1="54" y1="244" x2="226" y2="244" stroke="#5F7A96" stroke-width="2" opacity="0.55"/><line x1="54" y1="256" x2="226" y2="256" stroke="#5F7A96" stroke-width="2" opacity="0.55"/><rect x="50" y="150" width="9" height="114" rx="3" fill="#EFF2F0"/><rect x="221" y="150" width="9" height="114" rx="3" fill="#EFF2F0"/><rect x="52" y="262" width="176" height="16" rx="4" fill="#C9C4B8"/><rect x="60" y="266" width="16" height="8" rx="3" fill="#AFA898" opacity="0.7"/><rect x="86" y="266" width="16" height="8" rx="3" fill="#BCB4A2" opacity="0.7"/><rect x="112" y="266" width="16" height="8" rx="3" fill="#AFA898" opacity="0.7"/><rect x="138" y="266" width="16" height="8" rx="3" fill="#B5AC99" opacity="0.7"/><rect x="164" y="266" width="16" height="8" rx="3" fill="#AFA898" opacity="0.7"/><rect x="190" y="266" width="16" height="8" rx="3" fill="#AFA898" opacity="0.7"/><rect x="198" y="74" width="13" height="42" rx="3" fill="#4A4646"/><rect x="194.5" y="67" width="20" height="9" rx="4" fill="#4A4646"/><circle cx="216" cy="54" r="4.5" fill="#fff" opacity="0.4"/><circle cx="222" cy="41" r="5.5" fill="#fff" opacity="0.28"/><path d="M32,158 L134,46 Q140,40 146,46 L248,158 Q248,166 240,166 L40,166 Q32,166 32,158 Z" fill="url(#roof)"/><path d="M108.7,84.0 Q119.1,92.0 129.6,84.0 Q140.0,92.0 150.4,84.0 Q160.9,92.0 171.3,84.0" stroke="#22362A" stroke-width="2.4" fill="none" opacity="0.7"/><path d="M90.1,104.0 Q100.1,112.0 110.1,104.0 Q120.1,112.0 130.0,104.0 Q140.0,112.0 150.0,104.0 Q159.9,112.0 169.9,104.0 Q179.9,112.0 189.9,104.0" stroke="#22362A" stroke-width="2.4" fill="none" opacity="0.7"/><path d="M71.6,124.0 Q80.1,132.0 88.7,124.0 Q97.2,132.0 105.8,124.0 Q114.3,132.0 122.9,124.0 Q131.4,132.0 140.0,124.0 Q148.6,132.0 157.1,124.0 Q165.7,132.0 174.2,124.0 Q182.8,132.0 191.3,124.0 Q199.9,132.0 208.4,124.0" stroke="#22362A" stroke-width="2.4" fill="none" opacity="0.7"/><path d="M53.0,144.0 Q61.7,152.0 70.4,144.0 Q79.1,152.0 87.8,144.0 Q96.5,152.0 105.2,144.0 Q113.9,152.0 122.6,144.0 Q131.3,152.0 140.0,144.0 Q148.7,152.0 157.4,144.0 Q166.1,152.0 174.8,144.0 Q183.5,152.0 192.2,144.0 Q200.9,152.0 209.6,144.0 Q218.3,152.0 227.0,144.0" stroke="#22362A" stroke-width="2.4" fill="none" opacity="0.7"/><path d="M38.0,160.0 Q46.5,168.0 55.0,160.0 Q63.5,168.0 72.0,160.0 Q80.5,168.0 89.0,160.0 Q97.5,168.0 106.0,160.0 Q114.5,168.0 123.0,160.0 Q131.5,168.0 140.0,160.0 Q148.5,168.0 157.0,160.0 Q165.5,168.0 174.0,160.0 Q182.5,168.0 191.0,160.0 Q199.5,168.0 208.0,160.0 Q216.5,168.0 225.0,160.0 Q233.5,168.0 242.0,160.0" stroke="#22362A" stroke-width="2.4" fill="none" opacity="0.7"/><path d="M134,46 Q140,40 146,46 L244,154 L236,160 L140,54 L44,160 L36,154 Z" fill="#EFF2F0"/><path d="M137,54 L90,108 L100,114 L142,62 Z" fill="#537560" opacity="0.45"/><rect x="110" y="186" width="60" height="92" rx="4" fill="#EFF2F0"/><rect x="118" y="192" width="44" height="86" rx="2" fill="#A9743F"/><rect x="124" y="200" width="14" height="26" rx="2.5" fill="#7C5227" opacity="0.45"/><rect x="142" y="200" width="14" height="26" rx="2.5" fill="#7C5227" opacity="0.45"/><rect x="124" y="236" width="14" height="34" rx="2.5" fill="#7C5227" opacity="0.45"/><rect x="142" y="236" width="14" height="34" rx="2.5" fill="#7C5227" opacity="0.45"/><rect x="155" y="228" width="4.5" height="16" rx="2" fill="#C9A34C"/><rect x="67" y="189" width="38" height="36" rx="5" fill="#EFF2F0"/><rect x="70" y="192" width="32" height="30" rx="3" fill="url(#glow)"/><line x1="86" y1="192" x2="86" y2="222" stroke="#EFF2F0" stroke-width="3"/><line x1="70" y1="206" x2="102" y2="206" stroke="#EFF2F0" stroke-width="3"/><rect x="64" y="223" width="44" height="6" rx="3" fill="#EFF2F0"/><circle cx="101" cy="185" r="16" fill="#FFD98A" opacity="0.28"/><rect x="99.5" y="168" width="3" height="6" fill="#5b5147"/><rect x="95" y="173" width="12" height="14" rx="3" fill="#5b5147"/><rect x="97" y="175" width="8" height="10" rx="2" fill="#FFF3C4"/><rect x="93.5" y="186" width="15" height="3" rx="1.5" fill="#5b5147"/><rect x="61" y="250" width="4.5" height="18" fill="#8a6a4a"/><rect x="82" y="250" width="4.5" height="18" fill="#8a6a4a"/><rect x="56" y="236" width="36" height="24" rx="4" fill="#EFE6D2" stroke="#C9BBA0" stroke-width="2"/><path d="M64,248 q5,-6 9,0 t9,0" stroke="#E3B04B" stroke-width="2.4" fill="none" stroke-linecap="round"/><rect x="112" y="277" width="56" height="9" rx="3" fill="#D6D0C2"/><rect x="104" y="285" width="72" height="9" rx="3" fill="#BDB5A2"/></svg>