<svg xmlns="http://www.w3.org/2000/svg" viewBox="0 0 280 312" width="280" height="312"><defs>
  <linearGradient id="wall" x1="0" y1="0" x2="0.6" y2="1">
    <stop offset="0" stop-color="#F7EFDE"/><stop offset="1" stop-color="#E7D9BC"/></linearGradient>
  <linearGradient id="roof" x1="0" y1="0" x2="0.35" y2="1">
    <stop offset="0" stop-color="#E2795B"/><stop offset="1" stop-color="#B8563C"/></linearGradient>
  <linearGradient id="glow" x1="0" y1="0" x2="0" y2="1">
    <stop offset="0" stop-color="#FFF3C4"/><stop offset="1" stop-color="#FFD98A"/></linearGradient>
</defs><ellipse cx="140" cy="298" rx="102" ry="9" fill="#1e2b1c" opacity="0.16"/><rect x="52" y="146" width="176" height="132" rx="6" fill="url(#wall)"/><line x1="67" y1="150" x2="67" y2="262" stroke="#E7D9BC" stroke-width="2" opacity="0.45"/><line x1="82" y1="150" x2="82" y2="262" stroke="#E7D9BC" stroke-width="2" opacity="0.45"/><line x1="97" y1="150" x2="97" y2="262" stroke="#E7D9BC" stroke-width="2" opacity="0.45"/><line x1="112" y1="150" x2="112" y2="262" stroke="#E7D9BC" stroke-width="2" opacity="0.45"/><line x1="127" y1="150" x2="127" y2="262" stroke="#E7D9BC" stroke-width="2" opacity="0.45"/><line x1="142" y1="150" x2="142" y2="262" stroke="#E7D9BC" stroke-width="2" opacity="0.45"/><line x1="157" y1="150" x2="157" y2="262" stroke="#E7D9BC" stroke-width="2" opacity="0.45"/><line x1="172" y1="150" x2="172" y2="262" stroke="#E7D9BC" stroke-width="2" opacity="0.45"/><line x1="187" y1="150" x2="187" y2="262" stroke="#E7D9BC" stroke-width="2" opacity="0.45"/><line x1="202" y1="150" x2="202" y2="262" stroke="#E7D9BC" stroke-width="2" opacity="0.45"/><line x1="217" y1="150" x2="217" y2="262" stroke="#E7D9BC" stroke-width="2" opacity="0.45"/><rect x="52" y="262" width="176" height="16" rx="4" fill="#C9C4B8"/><rect x="60" y="266" width="16" height="8" rx="3" fill="#AFA898" opacity="0.7"/><rect x="86" y="266" width="16" height="8" rx="3" fill="#BCB4A2" opacity="0.7"/><rect x="112" y="266" width="16" height="8" rx="3" fill="#AFA898" opacity="0.7"/><rect x="138" y="266" width="16" height="8" rx="3" fill="#B5AC99" opacity="0.7"/><rect x="164" y="266" width="16" height="8" rx="3" fill="#AFA898" opacity="0.7"/><rect x="190" y="266" width="16" height="8" rx="3" fill="#AFA898" opacity="0.7"/><rect x="198" y="74" width="13" height="42" rx="3" fill="#4A4646"/><rect x="194.5" y="67" width="20" height="9" rx="4" fill="#4A4646"/><circle cx="216" cy="54" r="4.5" fill="#fff" opacity="0.4"/><circle cx="222" cy="41" r="5.5" fill="#fff" opacity="0.28"/><path d="M32,158 L134,44 Q140,38 146,44 L248,158 Q248,166 240,166 L40,166 Q32,166 32,158 Z" fill="url(#roof)"/><path d="M109.3,82.0 Q119.6,91.0 129.8,82.0 Q140.0,91.0 150.2,82.0 Q160.4,91.0 170.7,82.0" stroke="#B8563C" stroke-width="2.6" fill="none" opacity="0.75"/><path d="M91.1,102.0 Q100.9,111.0 110.7,102.0 Q120.4,111.0 130.2,102.0 Q140.0,111.0 149.8,102.0 Q159.6,111.0 169.3,102.0 Q179.1,111.0 188.9,102.0" stroke="#B8563C" stroke-width="2.6" fill="none" opacity="0.75"/><path d="M72.8,122.0 Q82.4,131.0 92.0,122.0 Q101.6,131.0 111.2,122.0 Q120.8,131.0 130.4,122.0 Q140.0,131.0 149.6,122.0 Q159.2,131.0 168.8,122.0 Q178.4,131.0 188.0,122.0 Q197.6,131.0 207.2,122.0" stroke="#B8563C" stroke-width="2.6" fill="none" opacity="0.75"/><path d="M54.6,142.0 Q63.1,151.0 71.7,142.0 Q80.2,151.0 88.8,142.0 Q97.3,151.0 105.8,142.0 Q114.4,151.0 122.9,142.0 Q131.5,151.0 140.0,142.0 Q148.5,151.0 157.1,142.0 Q165.6,151.0 174.2,142.0 Q182.7,151.0 191.2,142.0 Q199.8,151.0 208.3,142.0 Q216.9,151.0 225.4,142.0" stroke="#B8563C" stroke-width="2.6" fill="none" opacity="0.75"/><path d="M38.0,160.0 Q46.5,169.0 55.0,160.0 Q63.5,169.0 72.0,160.0 Q80.5,169.0 89.0,160.0 Q97.5,169.0 106.0,160.0 Q114.5,169.0 123.0,160.0 Q131.5,169.0 140.0,160.0 Q148.5,169.0 157.0,160.0 Q165.5,169.0 174.0,160.0 Q182.5,169.0 191.0,160.0 Q199.5,169.0 208.0,160.0 Q216.5,169.0 225.0,160.0 Q233.5,169.0 242.0,160.0" stroke="#B8563C" stroke-width="2.6" fill="none" opacity="0.75"/><path d="M137,52 L86,110 L98,116 L142,60 Z" fill="#F2A184" opacity="0.55"/><path d="M134,44 Q140,38 146,44 L143,54 Q140,50 137,54 Z" fill="#B8563C"/><rect x="114" y="188" width="52" height="90" rx="5" fill="#8F5F38"/><rect x="118" y="192" width="44" height="86" rx="3" fill="#C08552"/><rect x="124" y="200" width="32" height="28" rx="3" fill="url(#glow)" stroke="#8F5F38" stroke-width="3"/><line x1="140" y1="200" x2="140" y2="228" stroke="#8F5F38" stroke-width="3"/><line x1="124" y1="214" x2="156" y2="214" stroke="#8F5F38" stroke-width="3"/><rect x="124" y="238" width="32" height="14" rx="3" fill="#8F5F38" opacity="0.35"/><rect x="124" y="258" width="32" height="14" rx="3" fill="#8F5F38" opacity="0.35"/><circle cx="122.5" cy="236" r="4" fill="#E8C069"/><rect x="67" y="189" width="38" height="36" rx="5" fill="#8A7458"/><rect x="70" y="192" width="32" height="30" rx="3" fill="url(#glow)"/><line x1="86" y1="192" x2="86" y2="222" stroke="#8A7458" stroke-width="3"/><line x1="70" y1="206" x2="102" y2="206" stroke="#8A7458" stroke-width="3"/><rect x="64" y="223" width="44" height="6" rx="3" fill="#8A7458"/><circle cx="101" cy="185" r="16" fill="#FFD98A" opacity="0.28"/><rect x="99.5" y="168" width="3" height="6" fill="#5b5147"/><rect x="95" y="173" width="12" height="14" rx="3" fill="#5b5147"/><rect x="97" y="175" width="8" height="10" rx="2" fill="#FFF3C4"/><rect x="93.5" y="186" width="15" height="3" rx="1.5" fill="#5b5147"/><rect x="61" y="250" width="4.5" height="18" fill="#8a6a4a"/><rect x="82" y="250" width="4.5" height="18" fill="#8a6a4a"/><rect x="56" y="236" width="36" height="24" rx="4" fill="#EFE6D2" stroke="#C9BBA0" stroke-width="2"/><path d="M64,248 q5,-6 9,0 t9,0" stroke="#DD7A5C" stroke-width="2.4" fill="none" stroke-linecap="round"/><rect x="112" y="277" width="56" height="9" rx="3" fill="#D6D0C2"/><rect x="104" y="285" width="72" height="9" rx="3" fill="#BDB5A2"/></svg>