<svg xmlns="http://www.w3.org/2000/svg" viewBox="0 0 280 312" width="280" height="312"><defs>
  <linearGradient id="wall" x1="0" y1="0" x2="0.6" y2="1">
    <stop offset="0" stop-color="#F3E4C9"/><stop offset="1" stop-color="#E2CDA6"/></linearGradient>
  <linearGradient id="roof" x1="0" y1="0" x2="0.35" y2="1">
    <stop offset="0" stop-color="#E5BA74"/><stop offset="1" stop-color="#B98E4B"/></linearGradient>
  <linearGradient id="glow" x1="0" y1="0" x2="0" y2="1">
    <stop offset="0" stop-color="#FFF3C4"/><stop offset="1" stop-color="#FFD98A"/></linearGradient>
</defs><ellipse cx="140" cy="298" rx="102" ry="9" fill="#1e2b1c" opacity="0.16"/><path d="M58,278 L58,150 Q58,120 90,116 L190,116 Q222,120 222,150 L222,278 Z" fill="url(#wall)"/><rect x="58" y="262" width="164" height="16" rx="4" fill="#C9C4B8"/><rect x="66" y="266" width="16" height="8" rx="3" fill="#AFA898" opacity="0.7"/><rect x="92" y="266" width="16" height="8" rx="3" fill="#BCB4A2" opacity="0.7"/><rect x="118" y="266" width="16" height="8" rx="3" fill="#AFA898" opacity="0.7"/><rect x="144" y="266" width="16" height="8" rx="3" fill="#B5AC99" opacity="0.7"/><rect x="170" y="266" width="16" height="8" rx="3" fill="#AFA898" opacity="0.7"/><rect x="196" y="266" width="16" height="8" rx="3" fill="#AFA898" opacity="0.7"/><rect x="194" y="62" width="13" height="38" rx="3" fill="#4A4646"/><rect x="190.5" y="55" width="20" height="9" rx="4" fill="#4A4646"/><circle cx="212" cy="42" r="4.5" fill="#fff" opacity="0.4"/><circle cx="218" cy="29" r="5.5" fill="#fff" opacity="0.28"/><path d="M242,158 Q238,64 140,58 Q42,64 38,158 M38.0,158.0 Q46.5,168.0 55.0,158.0 Q63.5,168.0 72.0,158.0 Q80.5,168.0 89.0,158.0 Q97.5,168.0 106.0,158.0 Q114.5,168.0 123.0,158.0 Q131.5,168.0 140.0,158.0 Q148.5,168.0 157.0,158.0 Q165.5,168.0 174.0,158.0 Q182.5,168.0 191.0,158.0 Q199.5,168.0 208.0,158.0 Q216.5,168.0 225.0,158.0 Q233.5,168.0 242.0,158.0 Z" fill="url(#roof)"/><path d="M82,92 Q140,78 198,92" stroke="#B98E4B" stroke-width="2.4" fill="none" opacity="0.5"/><path d="M70,114 Q140,100 210,114" stroke="#B98E4B" stroke-width="2.4" fill="none" opacity="0.5"/><path d="M61,136 Q140,122 219,136" stroke="#B98E4B" stroke-width="2.4" fill="none" opacity="0.5"/><path d="M80,110 Q104,72 140,68 L140,78 Q112,82 92,116 Z" fill="#F5D89B" opacity="0.55"/><path d="M128,58 Q140,38 152,58 L148,64 Q140,52 132,64 Z" fill="#B98E4B"/><path d="M130,44 L128,30 M140,42 L140,26 M150,44 L152,30" stroke="#B98E4B" stroke-width="5" stroke-linecap="round"/><rect x="127" y="46" width="26" height="9" rx="4" fill="#F5D89B"/><path d="M111,278 L111,214 Q111,184 140,184 Q169,184 169,214 L169,278 Z" fill="#6E392B"/><path d="M115,278 L115,215 Q115,189 140,189 Q165,189 165,215 L165,278 Z" fill="#94503F"/><line x1="131" y1="192" x2="131" y2="278" stroke="#6E392B" stroke-width="2" opacity="0.5"/><line x1="149" y1="192" x2="149" y2="278" stroke="#6E392B" stroke-width="2" opacity="0.5"/><circle cx="155" cy="236" r="4.2" fill="#E8C069"/><rect x="67" y="193" width="38" height="36" rx="5" fill="#8A6E4C"/><rect x="70" y="196" width="32" height="30" rx="3" fill="url(#glow)"/><line x1="86" y1="196" x2="86" y2="226" stroke="#8A6E4C" stroke-width="3"/><line x1="70" y1="210" x2="102" y2="210" stroke="#8A6E4C" stroke-width="3"/><rect x="64" y="227" width="44" height="6" rx="3" fill="#8A6E4C"/><circle cx="96" cy="187" r="16" fill="#FFD98A" opacity="0.28"/><rect x="94.5" y="170" width="3" height="6" fill="#5b5147"/><rect x="90" y="175" width="12" height="14" rx="3" fill="#5b5147"/><rect x="92" y="177" width="8" height="10" rx="2" fill="#FFF3C4"/><rect x="88.5" y="188" width="15" height="3" rx="1.5" fill="#5b5147"/><rect x="63" y="250" width="4.5" height="18" fill="#8a6a4a"/><rect x="84" y="250" width="4.5" height="18" fill="#8a6a4a"/><rect x="58" y="236" width="36" height="24" rx="4" fill="#EFE6D2" stroke="#C9BBA0" stroke-width="2"/><path d="M66,248 q5,-6 9,0 t9,0" stroke="#D99A45" stroke-width="2.4" fill="none" stroke-linecap="round"/><rect x="112" y="277" width="56" height="9" rx="3" fill="#D6D0C2"/><rect x="104" y="285" width="72" height="9" rx="3" fill="#BDB5A2"/></svg>