<svg xmlns="http://www.w3.org/2000/svg" viewBox="0 0 280 312" width="280" height="312"><defs>
  <linearGradient id="wall" x1="0" y1="0" x2="0.6" y2="1">
    <stop offset="0" stop-color="#E0663F"/><stop offset="1" stop-color="#C24E2C"/></linearGradient>
  <linearGradient id="roof" x1="0" y1="0" x2="0.35" y2="1">
    <stop offset="0" stop-color="#63A379"/><stop offset="1" stop-color="#457E5A"/></linearGradient>
  <linearGradient id="glow" x1="0" y1="0" x2="0" y2="1">
    <stop offset="0" stop-color="#FFF3C4"/><stop offset="1" stop-color="#FFD98A"/></linearGradient>
</defs><ellipse cx="140" cy="298" rx="102" ry="9" fill="#1e2b1c" opacity="0.16"/><rect x="56" y="150" width="168" height="128" rx="5" fill="url(#wall)"/><rect x="52" y="142" width="10" height="136" rx="4" fill="#6E9163"/><line x1="60" y1="146" x2="60" y2="274" stroke="#4E6B47" stroke-width="2" opacity="0.6"/><rect x="218" y="142" width="10" height="136" rx="4" fill="#6E9163"/><line x1="226" y1="146" x2="226" y2="274" stroke="#4E6B47" stroke-width="2" opacity="0.6"/><rect x="101" y="150" width="9" height="128" rx="3.5" fill="#6E9163"/><rect x="170" y="150" width="9" height="128" rx="3.5" fill="#6E9163"/><rect x="56" y="262" width="168" height="16" rx="4" fill="#C9C4B8"/><rect x="64" y="266" width="16" height="8" rx="3" fill="#AFA898" opacity="0.7"/><rect x="90" y="266" width="16" height="8" rx="3" fill="#BCB4A2" opacity="0.7"/><rect x="116" y="266" width="16" height="8" rx="3" fill="#AFA898" opacity="0.7"/><rect x="142" y="266" width="16" height="8" rx="3" fill="#B5AC99" opacity="0.7"/><rect x="168" y="266" width="16" height="8" rx="3" fill="#AFA898" opacity="0.7"/><rect x="194" y="266" width="16" height="8" rx="3" fill="#AFA898" opacity="0.7"/><rect x="196" y="78" width="13" height="40" rx="3" fill="#4A4646"/><rect x="192.5" y="71" width="20" height="9" rx="4" fill="#4A4646"/><circle cx="214" cy="58" r="4.5" fill="#fff" opacity="0.4"/><circle cx="220" cy="45" r="5.5" fill="#fff" opacity="0.28"/><path d="M24,158 Q50,152 64,136 L132,58 Q140,50 148,58 L216,136 Q230,152 256,158 Q258,166 248,166 L32,166 Q22,166 24,158 Z" fill="url(#roof)"/><path d="M109.6,86.0 Q119.7,94.0 129.9,86.0 Q140.0,94.0 150.1,86.0 Q160.3,94.0 170.4,86.0" stroke="#457E5A" stroke-width="2.4" fill="none" opacity="0.7"/><path d="M88.7,108.0 Q97.2,116.0 105.8,108.0 Q114.4,116.0 122.9,108.0 Q131.5,116.0 140.0,108.0 Q148.6,116.0 157.1,108.0 Q165.7,116.0 174.2,108.0 Q182.8,116.0 191.3,108.0" stroke="#457E5A" stroke-width="2.4" fill="none" opacity="0.7"/><path d="M67.8,130.0 Q76.8,138.0 85.8,130.0 Q94.9,138.0 103.9,130.0 Q112.9,138.0 121.9,130.0 Q131.0,138.0 140.0,130.0 Q149.0,138.0 158.1,130.0 Q167.1,138.0 176.1,130.0 Q185.1,138.0 194.2,130.0 Q203.2,138.0 212.2,130.0" stroke="#457E5A" stroke-width="2.4" fill="none" opacity="0.7"/><path d="M32.0,158.0 Q41.0,166.0 50.0,158.0 Q59.0,166.0 68.0,158.0 Q77.0,166.0 86.0,158.0 Q95.0,166.0 104.0,158.0 Q113.0,166.0 122.0,158.0 Q131.0,166.0 140.0,158.0 Q149.0,166.0 158.0,158.0 Q167.0,166.0 176.0,158.0 Q185.0,166.0 194.0,158.0 Q203.0,166.0 212.0,158.0 Q221.0,166.0 230.0,158.0 Q239.0,166.0 248.0,158.0" stroke="#457E5A" stroke-width="2.4" fill="none" opacity="0.7"/><path d="M132,58 Q140,50 148,58 L145,66 Q140,60 135,66 Z" fill="#457E5A"/><path d="M135,62 L92,112 L102,118 L141,68 Z" fill="#8AC29B" opacity="0.5"/><circle cx="80" cy="212" r="23" fill="#F0E4C2"/><circle cx="80" cy="212" r="17" fill="url(#glow)"/><rect x="69" y="201" width="22" height="22" fill="none" stroke="#4E6B47" stroke-width="3"/><line x1="80" y1="201" x2="80" y2="223" stroke="#4E6B47" stroke-width="2.6"/><line x1="69" y1="212" x2="91" y2="212" stroke="#4E6B47" stroke-width="2.6"/><circle cx="86" cy="130" r="17" fill="#F2A93B" opacity="0.25"/><line x1="86" y1="108" x2="86" y2="118" stroke="#8A5A20" stroke-width="2.5"/><rect x="80" y="116" width="12" height="4" rx="2" fill="#8A5A20"/><rect x="77" y="119" width="18" height="22" rx="8" fill="#F2A93B"/><line x1="80" y1="125" x2="92" y2="125" stroke="#C97E22" stroke-width="1.8"/><line x1="79" y1="132" x2="93" y2="132" stroke="#C97E22" stroke-width="1.8"/><rect x="82" y="140" width="8" height="4" rx="2" fill="#8A5A20"/><rect x="114" y="188" width="52" height="90" rx="5" fill="#96271F"/><rect x="118" y="192" width="44" height="86" rx="3" fill="#C63B33"/><rect x="124" y="200" width="32" height="28" rx="3" fill="url(#glow)" stroke="#96271F" stroke-width="3"/><line x1="140" y1="200" x2="140" y2="228" stroke="#96271F" stroke-width="3"/><line x1="124" y1="214" x2="156" y2="214" stroke="#96271F" stroke-width="3"/><rect x="124" y="238" width="32" height="14" rx="3" fill="#96271F" opacity="0.35"/><rect x="124" y="258" width="32" height="14" rx="3" fill="#96271F" opacity="0.35"/><circle cx="122.5" cy="236" r="4" fill="#E8C069"/><rect x="189" y="252" width="4.5" height="18" fill="#8a6a4a"/><rect x="210" y="252" width="4.5" height="18" fill="#8a6a4a"/><rect x="184" y="238" width="36" height="24" rx="4" fill="#EFE6D2" stroke="#C9BBA0" stroke-width="2"/><path d="M192,250 q5,-6 9,0 t9,0" stroke="#F2A93B" stroke-width="2.4" fill="none" stroke-linecap="round"/><rect x="112" y="277" width="56" height="9" rx="3" fill="#D6D0C2"/><rect x="104" y="285" width="72" height="9" rx="3" fill="#BDB5A2"/></svg>