<svg xmlns="http://www.w3.org/2000/svg" viewBox="0 0 280 312" width="280" height="312"><defs>
  <linearGradient id="wall" x1="0" y1="0" x2="0.6" y2="1">
    <stop offset="0" stop-color="#B9A490"/><stop offset="1" stop-color="#A18C78"/></linearGradient>
  <linearGradient id="roof" x1="0" y1="0" x2="0.35" y2="1">
    <stop offset="0" stop-color="#A8B39A"/><stop offset="1" stop-color="#839076"/></linearGradient>
  <linearGradient id="glow" x1="0" y1="0" x2="0" y2="1">
    <stop offset="0" stop-color="#FFF3C4"/><stop offset="1" stop-color="#FFD98A"/></linearGradient>
</defs><ellipse cx="140" cy="298" rx="102" ry="9" fill="#1e2b1c" opacity="0.16"/><rect x="52" y="150" width="176" height="16" rx="8" fill="#B9A490"/><circle cx="60" cy="158" r="7" fill="#8F7561"/><circle cx="60" cy="158" r="3.4" fill="#A18C78"/><circle cx="220" cy="158" r="7" fill="#8F7561"/><circle cx="220" cy="158" r="3.4" fill="#A18C78"/><rect x="52" y="166" width="176" height="16" rx="8" fill="#A18C78"/><circle cx="60" cy="174" r="7" fill="#8F7561"/><circle cx="60" cy="174" r="3.4" fill="#A18C78"/><circle cx="220" cy="174" r="7" fill="#8F7561"/><circle cx="220" cy="174" r="3.4" fill="#A18C78"/><rect x="52" y="182" width="176" height="16" rx="8" fill="#B9A490"/><circle cx="60" cy="190" r="7" fill="#8F7561"/><circle cx="60" cy="190" r="3.4" fill="#A18C78"/><circle cx="220" cy="190" r="7" fill="#8F7561"/><circle cx="220" cy="190" r="3.4" fill="#A18C78"/><rect x="52" y="198" width="176" height="16" rx="8" fill="#A18C78"/><circle cx="60" cy="206" r="7" fill="#8F7561"/><circle cx="60" cy="206" r="3.4" fill="#A18C78"/><circle cx="220" cy="206" r="7" fill="#8F7561"/><circle cx="220" cy="206" r="3.4" fill="#A18C78"/><rect x="52" y="214" width="176" height="16" rx="8" fill="#B9A490"/><circle cx="60" cy="222" r="7" fill="#8F7561"/><circle cx="60" cy="222" r="3.4" fill="#A18C78"/><circle cx="220" cy="222" r="7" fill="#8F7561"/><circle cx="220" cy="222" r="3.4" fill="#A18C78"/><rect x="52" y="230" width="176" height="16" rx="8" fill="#A18C78"/><circle cx="60" cy="238" r="7" fill="#8F7561"/><circle cx="60" cy="238" r="3.4" fill="#A18C78"/><circle cx="220" cy="238" r="7" fill="#8F7561"/><circle cx="220" cy="238" r="3.4" fill="#A18C78"/><rect x="52" y="246" width="176" height="16" rx="8" fill="#B9A490"/><circle cx="60" cy="254" r="7" fill="#8F7561"/><circle cx="60" cy="254" r="3.4" fill="#A18C78"/><circle cx="220" cy="254" r="7" fill="#8F7561"/><circle cx="220" cy="254" r="3.4" fill="#A18C78"/><rect x="52" y="262" width="176" height="16" rx="4" fill="#C9C4B8"/><rect x="60" y="266" width="16" height="8" rx="3" fill="#AFA898" opacity="0.7"/><rect x="86" y="266" width="16" height="8" rx="3" fill="#BCB4A2" opacity="0.7"/><rect x="112" y="266" width="16" height="8" rx="3" fill="#AFA898" opacity="0.7"/><rect x="138" y="266" width="16" height="8" rx="3" fill="#B5AC99" opacity="0.7"/><rect x="164" y="266" width="16" height="8" rx="3" fill="#AFA898" opacity="0.7"/><rect x="190" y="266" width="16" height="8" rx="3" fill="#AFA898" opacity="0.7"/><rect x="198" y="92" width="13" height="42" rx="3" fill="#4A4646"/><rect x="194.5" y="85" width="20" height="9" rx="4" fill="#4A4646"/><circle cx="216" cy="72" r="4.5" fill="#fff" opacity="0.4"/><circle cx="222" cy="59" r="5.5" fill="#fff" opacity="0.28"/><path d="M28,164 Q140,58 252,164 L252,168 Q252,174 244,174 L36,174 Q28,174 28,168 Z" fill="url(#roof)"/><path d="M64,156 Q140,86 216,156" stroke="#839076" stroke-width="2.4" fill="none" opacity="0.45"/><path d="M80,146 Q140,102 200,146" stroke="#839076" stroke-width="2.4" fill="none" opacity="0.45"/><path d="M70,140 Q96,84 140,68 L140,80 Q104,94 82,146 Z" fill="#C6CFB8" opacity="0.5"/><path d="M32,166 Q140,62 248,166" stroke="#7A5B44" stroke-width="6" fill="none" opacity="0.9"/><path d="M111,278 L111,214 Q111,184 140,184 Q169,184 169,214 L169,278 Z" fill="#96683B"/><path d="M115,278 L115,215 Q115,189 140,189 Q165,189 165,215 L165,278 Z" fill="#C89358"/><line x1="131" y1="192" x2="131" y2="278" stroke="#96683B" stroke-width="2" opacity="0.5"/><line x1="149" y1="192" x2="149" y2="278" stroke="#96683B" stroke-width="2" opacity="0.5"/><circle cx="155" cy="236" r="4.2" fill="#E8C069"/><rect x="67" y="191" width="38" height="36" rx="5" fill="#8F7561"/><rect x="70" y="194" width="32" height="30" rx="3" fill="url(#glow)"/><line x1="86" y1="194" x2="86" y2="224" stroke="#8F7561" stroke-width="3"/><line x1="70" y1="208" x2="102" y2="208" stroke="#8F7561" stroke-width="3"/><rect x="64" y="225" width="44" height="6" rx="3" fill="#8F7561"/><circle cx="101" cy="187" r="16" fill="#FFD98A" opacity="0.28"/><rect x="99.5" y="170" width="3" height="6" fill="#5b5147"/><rect x="95" y="175" width="12" height="14" rx="3" fill="#5b5147"/><rect x="97" y="177" width="8" height="10" rx="2" fill="#FFF3C4"/><rect x="93.5" y="188" width="15" height="3" rx="1.5" fill="#5b5147"/><rect x="61" y="250" width="4.5" height="18" fill="#8a6a4a"/><rect x="82" y="250" width="4.5" height="18" fill="#8a6a4a"/><rect x="56" y="236" width="36" height="24" rx="4" fill="#EFE6D2" stroke="#C9BBA0" stroke-width="2"/><path d="M64,248 q5,-6 9,0 t9,0" stroke="#C97B4B" stroke-width="2.4" fill="none" stroke-linecap="round"/><rect x="112" y="277" width="56" height="9" rx="3" fill="#D6D0C2"/><rect x="104" y="285" width="72" height="9" rx="3" fill="#BDB5A2"/></svg>