<svg xmlns="http://www.w3.org/2000/svg" viewBox="0 0 280 312" width="280" height="312"><defs>
  <linearGradient id="wall" x1="0" y1="0" x2="0.6" y2="1">
    <stop offset="0" stop-color="#BFE3D0"/><stop offset="1" stop-color="#9DCEB6"/></linearGradient>
  <linearGradient id="roof" x1="0" y1="0" x2="0.35" y2="1">
    <stop offset="0" stop-color="#EBE4D4"/><stop offset="1" stop-color="#C3B99F"/></linearGradient>
  <linearGradient id="glow" x1="0" y1="0" x2="0" y2="1">
    <stop offset="0" stop-color="#FFF3C4"/><stop offset="1" stop-color="#FFD98A"/></linearGradient>
</defs><ellipse cx="140" cy="298" rx="102" ry="9" fill="#1e2b1c" opacity="0.16"/><path d="M58,278 L58,150 Q58,124 86,120 L194,120 Q222,124 222,150 L222,278 Z" fill="url(#wall)"/><rect x="58" y="262" width="164" height="16" rx="4" fill="#C9C4B8"/><rect x="66" y="266" width="16" height="8" rx="3" fill="#AFA898" opacity="0.7"/><rect x="92" y="266" width="16" height="8" rx="3" fill="#BCB4A2" opacity="0.7"/><rect x="118" y="266" width="16" height="8" rx="3" fill="#AFA898" opacity="0.7"/><rect x="144" y="266" width="16" height="8" rx="3" fill="#B5AC99" opacity="0.7"/><rect x="170" y="266" width="16" height="8" rx="3" fill="#AFA898" opacity="0.7"/><rect x="196" y="266" width="16" height="8" rx="3" fill="#AFA898" opacity="0.7"/><rect x="194" y="60" width="13" height="40" rx="3" fill="#4A4646"/><rect x="190.5" y="53" width="20" height="9" rx="4" fill="#4A4646"/><circle cx="212" cy="40" r="4.5" fill="#fff" opacity="0.4"/><circle cx="218" cy="27" r="5.5" fill="#fff" opacity="0.28"/><path d="M34,162 Q52,66 140,52 Q228,66 246,162 Q246,170 238,170 L42,170 Q34,170 34,162 Z" fill="url(#roof)"/><path d="M80,84 Q140,62 200,84" stroke="#C3B99F" stroke-width="2.4" fill="none" opacity="0.45"/><path d="M64,108 Q140,86 216,108" stroke="#C3B99F" stroke-width="2.4" fill="none" opacity="0.45"/><path d="M52,132 Q140,110 228,132" stroke="#C3B99F" stroke-width="2.4" fill="none" opacity="0.45"/><path d="M44,154 Q140,132 236,154" stroke="#C3B99F" stroke-width="2.4" fill="none" opacity="0.45"/><path d="M76,120 Q96,72 140,62 L140,72 Q106,82 88,126 Z" fill="#F8F3E7" opacity="0.5"/><circle cx="140" cy="52" r="7" fill="#C3B99F"/><circle cx="140" cy="50" r="3" fill="#F8F3E7"/><path d="M111,278 L111,214 Q111,184 140,184 Q169,184 169,214 L169,278 Z" fill="#6E92B4"/><path d="M115,278 L115,215 Q115,189 140,189 Q165,189 165,215 L165,278 Z" fill="#9FBED9"/><line x1="131" y1="192" x2="131" y2="278" stroke="#6E92B4" stroke-width="2" opacity="0.5"/><line x1="149" y1="192" x2="149" y2="278" stroke="#6E92B4" stroke-width="2" opacity="0.5"/><circle cx="155" cy="236" r="4.2" fill="#E8C069"/><path d="M67,231 L67,210 Q67,194 86,194 Q105,194 105,210 L105,231 Z" fill="#6E9483"/><path d="M70,228 L70,211 Q70,198 86,198 Q102,198 102,211 L102,228 Z" fill="url(#glow)"/><line x1="86" y1="198" x2="86" y2="228" stroke="#6E9483" stroke-width="3"/><rect x="64" y="229" width="44" height="6" rx="3" fill="#6E9483"/><circle cx="96" cy="189" r="16" fill="#FFD98A" opacity="0.28"/><rect x="94.5" y="172" width="3" height="6" fill="#5b5147"/><rect x="90" y="177" width="12" height="14" rx="3" fill="#5b5147"/><rect x="92" y="179" width="8" height="10" rx="2" fill="#FFF3C4"/><rect x="88.5" y="190" width="15" height="3" rx="1.5" fill="#5b5147"/><rect x="63" y="250" width="4.5" height="18" fill="#8a6a4a"/><rect x="84" y="250" width="4.5" height="18" fill="#8a6a4a"/><rect x="58" y="236" width="36" height="24" rx="4" fill="#EFE6D2" stroke="#C9BBA0" stroke-width="2"/><path d="M66,248 q5,-6 9,0 t9,0" stroke="#E8B34B" stroke-width="2.4" fill="none" stroke-linecap="round"/><rect x="112" y="277" width="56" height="9" rx="3" fill="#D6D0C2"/><rect x="104" y="285" width="72" height="9" rx="3" fill="#BDB5A2"/></svg>