<svg xmlns="http://www.w3.org/2000/svg" viewBox="0 0 280 312" width="280" height="312"><defs>
  <linearGradient id="wall" x1="0" y1="0" x2="0.6" y2="1">
    <stop offset="0" stop-color="#E1E7EC"/><stop offset="1" stop-color="#C7D2DA"/></linearGradient>
  <linearGradient id="roof" x1="0" y1="0" x2="0.35" y2="1">
    <stop offset="0" stop-color="#3F6F7F"/><stop offset="1" stop-color="#2B505C"/></linearGradient>
  <linearGradient id="glow" x1="0" y1="0" x2="0" y2="1">
    <stop offset="0" stop-color="#FFF3C4"/><stop offset="1" stop-color="#FFD98A"/></linearGradient>
</defs><ellipse cx="140" cy="298" rx="102" ry="9" fill="#1e2b1c" opacity="0.16"/><rect x="52" y="146" width="176" height="132" rx="6" fill="url(#wall)"/><line x1="67" y1="150" x2="67" y2="262" stroke="#C7D2DA" stroke-width="2" opacity="0.45"/><line x1="82" y1="150" x2="82" y2="262" stroke="#C7D2DA" stroke-width="2" opacity="0.45"/><line x1="97" y1="150" x2="97" y2="262" stroke="#C7D2DA" stroke-width="2" opacity="0.45"/><line x1="112" y1="150" x2="112" y2="262" stroke="#C7D2DA" stroke-width="2" opacity="0.45"/><line x1="127" y1="150" x2="127" y2="262" stroke="#C7D2DA" stroke-width="2" opacity="0.45"/><line x1="142" y1="150" x2="142" y2="262" stroke="#C7D2DA" stroke-width="2" opacity="0.45"/><line x1="157" y1="150" x2="157" y2="262" stroke="#C7D2DA" stroke-width="2" opacity="0.45"/><line x1="172" y1="150" x2="172" y2="262" stroke="#C7D2DA" stroke-width="2" opacity="0.45"/><line x1="187" y1="150" x2="187" y2="262" stroke="#C7D2DA" stroke-width="2" opacity="0.45"/><line x1="202" y1="150" x2="202" y2="262" stroke="#C7D2DA" stroke-width="2" opacity="0.45"/><line x1="217" y1="150" x2="217" y2="262" stroke="#C7D2DA" stroke-width="2" opacity="0.45"/><rect x="52" y="262" width="176" height="16" rx="4" fill="#C9C4B8"/><rect x="60" y="266" width="16" height="8" rx="3" fill="#AFA898" opacity="0.7"/><rect x="86" y="266" width="16" height="8" rx="3" fill="#BCB4A2" opacity="0.7"/><rect x="112" y="266" width="16" height="8" rx="3" fill="#AFA898" opacity="0.7"/><rect x="138" y="266" width="16" height="8" rx="3" fill="#B5AC99" opacity="0.7"/><rect x="164" y="266" width="16" height="8" rx="3" fill="#AFA898" opacity="0.7"/><rect x="190" y="266" width="16" height="8" rx="3" fill="#AFA898" opacity="0.7"/><rect x="198" y="74" width="13" height="42" rx="3" fill="#4A4646"/><rect x="194.5" y="67" width="20" height="9" rx="4" fill="#4A4646"/><circle cx="216" cy="54" r="4.5" fill="#fff" opacity="0.4"/><circle cx="222" cy="41" r="5.5" fill="#fff" opacity="0.28"/><path d="M32,158 L134,46 Q140,40 146,46 L248,158 Q248,166 240,166 L40,166 Q32,166 32,158 Z" fill="url(#roof)"/><clipPath id="cr"><path d="M32,158 L134,46 Q140,40 146,46 L248,158 Q248,166 240,166 L40,166 Q32,166 32,158 Z"/></clipPath><g clip-path="url(#cr)"><line x1="140" y1="42" x2="48" y2="170" stroke="#2B505C" stroke-width="3.4" opacity="0.4"/><line x1="140" y1="42" x2="64" y2="170" stroke="#2B505C" stroke-width="3.4" opacity="0.4"/><line x1="140" y1="42" x2="80" y2="170" stroke="#2B505C" stroke-width="3.4" opacity="0.4"/><line x1="140" y1="42" x2="96" y2="170" stroke="#2B505C" stroke-width="3.4" opacity="0.4"/><line x1="140" y1="42" x2="112" y2="170" stroke="#2B505C" stroke-width="3.4" opacity="0.4"/><line x1="140" y1="42" x2="128" y2="170" stroke="#2B505C" stroke-width="3.4" opacity="0.4"/><line x1="140" y1="42" x2="144" y2="170" stroke="#2B505C" stroke-width="3.4" opacity="0.4"/><line x1="140" y1="42" x2="160" y2="170" stroke="#2B505C" stroke-width="3.4" opacity="0.4"/><line x1="140" y1="42" x2="176" y2="170" stroke="#2B505C" stroke-width="3.4" opacity="0.4"/><line x1="140" y1="42" x2="192" y2="170" stroke="#2B505C" stroke-width="3.4" opacity="0.4"/><line x1="140" y1="42" x2="208" y2="170" stroke="#2B505C" stroke-width="3.4" opacity="0.4"/><line x1="140" y1="42" x2="224" y2="170" stroke="#2B505C" stroke-width="3.4" opacity="0.4"/></g><path d="M134,46 Q140,40 146,46 L244,154 L236,160 L140,54 L44,160 L36,154 Z" fill="#6899A9" opacity="0.8"/><rect x="114" y="188" width="52" height="90" rx="5" fill="#6E7B86"/><rect x="118" y="192" width="44" height="86" rx="3" fill="#F3F3EF"/><circle cx="140" cy="216" r="14" fill="#8B98A2"/><circle cx="140" cy="216" r="10.5" fill="url(#glow)"/><rect x="122" y="240" width="8" height="22" rx="3.5" fill="#8B98A2"/><rect x="124" y="268" width="32" height="6" rx="3" fill="#8B98A2" opacity="0.4"/><rect x="67" y="189" width="38" height="36" rx="5" fill="#6E7B86"/><rect x="70" y="192" width="32" height="30" rx="3" fill="url(#glow)"/><line x1="86" y1="192" x2="86" y2="222" stroke="#6E7B86" stroke-width="3"/><line x1="70" y1="206" x2="102" y2="206" stroke="#6E7B86" stroke-width="3"/><rect x="64" y="223" width="44" height="6" rx="3" fill="#6E7B86"/><circle cx="101" cy="185" r="16" fill="#FFD98A" opacity="0.28"/><rect x="99.5" y="168" width="3" height="6" fill="#5b5147"/><rect x="95" y="173" width="12" height="14" rx="3" fill="#5b5147"/><rect x="97" y="175" width="8" height="10" rx="2" fill="#FFF3C4"/><rect x="93.5" y="186" width="15" height="3" rx="1.5" fill="#5b5147"/><rect x="61" y="250" width="4.5" height="18" fill="#8a6a4a"/><rect x="82" y="250" width="4.5" height="18" fill="#8a6a4a"/><rect x="56" y="236" width="36" height="24" rx="4" fill="#EFE6D2" stroke="#C9BBA0" stroke-width="2"/><path d="M64,248 q5,-6 9,0 t9,0" stroke="#E084A0" stroke-width="2.4" fill="none" stroke-linecap="round"/><rect x="112" y="277" width="56" height="9" rx="3" fill="#D6D0C2"/><rect x="104" y="285" width="72" height="9" rx="3" fill="#BDB5A2"/></svg>