<svg xmlns="http://www.w3.org/2000/svg" viewBox="0 0 280 312" width="280" height="312"><defs>
  <linearGradient id="wall" x1="0" y1="0" x2="0.6" y2="1">
    <stop offset="0" stop-color="#F7E5E4"/><stop offset="1" stop-color="#EACDCC"/></linearGradient>
  <linearGradient id="roof" x1="0" y1="0" x2="0.35" y2="1">
    <stop offset="0" stop-color="#8FAE8B"/><stop offset="1" stop-color="#6B8C68"/></linearGradient>
  <linearGradient id="glow" x1="0" y1="0" x2="0" y2="1">
    <stop offset="0" stop-color="#FFF3C4"/><stop offset="1" stop-color="#FFD98A"/></linearGradient>
</defs><ellipse cx="140" cy="298" rx="102" ry="9" fill="#1e2b1c" opacity="0.16"/><clipPath id="rb"><path d="M34,168 Q34,58 140,58 Q246,58 246,168 L246,172 Q246,178 238,178 L226,178 Q222,132 140,132 Q58,132 54,178 L42,178 Q34,178 34,172 Z"/></clipPath><path d="M56,278 L56,152 Q56,96 140,96 Q224,96 224,152 L224,278 Z" fill="url(#wall)"/><rect x="56" y="262" width="168" height="16" rx="4" fill="#C9C4B8"/><rect x="64" y="266" width="16" height="8" rx="3" fill="#AFA898" opacity="0.7"/><rect x="90" y="266" width="16" height="8" rx="3" fill="#BCB4A2" opacity="0.7"/><rect x="116" y="266" width="16" height="8" rx="3" fill="#AFA898" opacity="0.7"/><rect x="142" y="266" width="16" height="8" rx="3" fill="#B5AC99" opacity="0.7"/><rect x="168" y="266" width="16" height="8" rx="3" fill="#AFA898" opacity="0.7"/><rect x="194" y="266" width="16" height="8" rx="3" fill="#AFA898" opacity="0.7"/><rect x="196" y="66" width="13" height="38" rx="3" fill="#4A4646"/><rect x="192.5" y="59" width="20" height="9" rx="4" fill="#4A4646"/><circle cx="214" cy="46" r="4.5" fill="#fff" opacity="0.4"/><circle cx="220" cy="33" r="5.5" fill="#fff" opacity="0.28"/><path d="M34,168 Q34,58 140,58 Q246,58 246,168 L246,172 Q246,178 238,178 L226,178 Q222,132 140,132 Q58,132 54,178 L42,178 Q34,178 34,172 Z" fill="url(#roof)"/><g clip-path="url(#rb)"><circle cx="41" cy="175" r="11.5" fill="#8FAE8B" stroke="#6B8C68" stroke-width="1.8"/><circle cx="63" cy="175" r="11.5" fill="#8FAE8B" stroke="#6B8C68" stroke-width="1.8"/><circle cx="85" cy="175" r="11.5" fill="#8FAE8B" stroke="#6B8C68" stroke-width="1.8"/><circle cx="107" cy="175" r="11.5" fill="#8FAE8B" stroke="#6B8C68" stroke-width="1.8"/><circle cx="129" cy="175" r="11.5" fill="#8FAE8B" stroke="#6B8C68" stroke-width="1.8"/><circle cx="151" cy="175" r="11.5" fill="#8FAE8B" stroke="#6B8C68" stroke-width="1.8"/><circle cx="173" cy="175" r="11.5" fill="#8FAE8B" stroke="#6B8C68" stroke-width="1.8"/><circle cx="195" cy="175" r="11.5" fill="#8FAE8B" stroke="#6B8C68" stroke-width="1.8"/><circle cx="217" cy="175" r="11.5" fill="#8FAE8B" stroke="#6B8C68" stroke-width="1.8"/><circle cx="239" cy="175" r="11.5" fill="#8FAE8B" stroke="#6B8C68" stroke-width="1.8"/><circle cx="30" cy="162" r="11.5" fill="#8FAE8B" stroke="#6B8C68" stroke-width="1.8"/><circle cx="52" cy="162" r="11.5" fill="#8FAE8B" stroke="#6B8C68" stroke-width="1.8"/><circle cx="74" cy="162" r="11.5" fill="#8FAE8B" stroke="#6B8C68" stroke-width="1.8"/><circle cx="96" cy="162" r="11.5" fill="#8FAE8B" stroke="#6B8C68" stroke-width="1.8"/><circle cx="118" cy="162" r="11.5" fill="#8FAE8B" stroke="#6B8C68" stroke-width="1.8"/><circle cx="140" cy="162" r="11.5" fill="#8FAE8B" stroke="#6B8C68" stroke-width="1.8"/><circle cx="162" cy="162" r="11.5" fill="#8FAE8B" stroke="#6B8C68" stroke-width="1.8"/><circle cx="184" cy="162" r="11.5" fill="#8FAE8B" stroke="#6B8C68" stroke-width="1.8"/><circle cx="206" cy="162" r="11.5" fill="#8FAE8B" stroke="#6B8C68" stroke-width="1.8"/><circle cx="228" cy="162" r="11.5" fill="#8FAE8B" stroke="#6B8C68" stroke-width="1.8"/><circle cx="250" cy="162" r="11.5" fill="#8FAE8B" stroke="#6B8C68" stroke-width="1.8"/><circle cx="41" cy="149" r="11.5" fill="#8FAE8B" stroke="#6B8C68" stroke-width="1.8"/><circle cx="63" cy="149" r="11.5" fill="#8FAE8B" stroke="#6B8C68" stroke-width="1.8"/><circle cx="85" cy="149" r="11.5" fill="#8FAE8B" stroke="#6B8C68" stroke-width="1.8"/><circle cx="107" cy="149" r="11.5" fill="#8FAE8B" stroke="#6B8C68" stroke-width="1.8"/><circle cx="129" cy="149" r="11.5" fill="#8FAE8B" stroke="#6B8C68" stroke-width="1.8"/><circle cx="151" cy="149" r="11.5" fill="#8FAE8B" stroke="#6B8C68" stroke-width="1.8"/><circle cx="173" cy="149" r="11.5" fill="#8FAE8B" stroke="#6B8C68" stroke-width="1.8"/><circle cx="195" cy="149" r="11.5" fill="#8FAE8B" stroke="#6B8C68" stroke-width="1.8"/><circle cx="217" cy="149" r="11.5" fill="#8FAE8B" stroke="#6B8C68" stroke-width="1.8"/><circle cx="239" cy="149" r="11.5" fill="#8FAE8B" stroke="#6B8C68" stroke-width="1.8"/><circle cx="30" cy="136" r="11.5" fill="#8FAE8B" stroke="#6B8C68" stroke-width="1.8"/><circle cx="52" cy="136" r="11.5" fill="#8FAE8B" stroke="#6B8C68" stroke-width="1.8"/><circle cx="74" cy="136" r="11.5" fill="#8FAE8B" stroke="#6B8C68" stroke-width="1.8"/><circle cx="96" cy="136" r="11.5" fill="#8FAE8B" stroke="#6B8C68" stroke-width="1.8"/><circle cx="118" cy="136" r="11.5" fill="#8FAE8B" stroke="#6B8C68" stroke-width="1.8"/><circle cx="140" cy="136" r="11.5" fill="#8FAE8B" stroke="#6B8C68" stroke-width="1.8"/><circle cx="162" cy="136" r="11.5" fill="#8FAE8B" stroke="#6B8C68" stroke-width="1.8"/><circle cx="184" cy="136" r="11.5" fill="#8FAE8B" stroke="#6B8C68" stroke-width="1.8"/><circle cx="206" cy="136" r="11.5" fill="#8FAE8B" stroke="#6B8C68" stroke-width="1.8"/><circle cx="228" cy="136" r="11.5" fill="#8FAE8B" stroke="#6B8C68" stroke-width="1.8"/><circle cx="250" cy="136" r="11.5" fill="#8FAE8B" stroke="#6B8C68" stroke-width="1.8"/><circle cx="41" cy="123" r="11.5" fill="#8FAE8B" stroke="#6B8C68" stroke-width="1.8"/><circle cx="63" cy="123" r="11.5" fill="#8FAE8B" stroke="#6B8C68" stroke-width="1.8"/><circle cx="85" cy="123" r="11.5" fill="#8FAE8B" stroke="#6B8C68" stroke-width="1.8"/><circle cx="107" cy="123" r="11.5" fill="#8FAE8B" stroke="#6B8C68" stroke-width="1.8"/><circle cx="129" cy="123" r="11.5" fill="#8FAE8B" stroke="#6B8C68" stroke-width="1.8"/><circle cx="151" cy="123" r="11.5" fill="#8FAE8B" stroke="#6B8C68" stroke-width="1.8"/><circle cx="173" cy="123" r="11.5" fill="#8FAE8B" stroke="#6B8C68" stroke-width="1.8"/><circle cx="195" cy="123" r="11.5" fill="#8FAE8B" stroke="#6B8C68" stroke-width="1.8"/><circle cx="217" cy="123" r="11.5" fill="#8FAE8B" stroke="#6B8C68" stroke-width="1.8"/><circle cx="239" cy="123" r="11.5" fill="#8FAE8B" stroke="#6B8C68" stroke-width="1.8"/><circle cx="30" cy="110" r="11.5" fill="#8FAE8B" stroke="#6B8C68" stroke-width="1.8"/><circle cx="52" cy="110" r="11.5" fill="#8FAE8B" stroke="#6B8C68" stroke-width="1.8"/><circle cx="74" cy="110" r="11.5" fill="#8FAE8B" stroke="#6B8C68" stroke-width="1.8"/><circle cx="96" cy="110" r="11.5" fill="#8FAE8B" stroke="#6B8C68" stroke-width="1.8"/><circle cx="118" cy="110" r="11.5" fill="#8FAE8B" stroke="#6B8C68" stroke-width="1.8"/><circle cx="140" cy="110" r="11.5" fill="#8FAE8B" stroke="#6B8C68" stroke-width="1.8"/><circle cx="162" cy="110" r="11.5" fill="#8FAE8B" stroke="#6B8C68" stroke-width="1.8"/><circle cx="184" cy="110" r="11.5" fill="#8FAE8B" stroke="#6B8C68" stroke-width="1.8"/><circle cx="206" cy="110" r="11.5" fill="#8FAE8B" stroke="#6B8C68" stroke-width="1.8"/><circle cx="228" cy="110" r="11.5" fill="#8FAE8B" stroke="#6B8C68" stroke-width="1.8"/><circle cx="250" cy="110" r="11.5" fill="#8FAE8B" stroke="#6B8C68" stroke-width="1.8"/><circle cx="41" cy="97" r="11.5" fill="#8FAE8B" stroke="#6B8C68" stroke-width="1.8"/><circle cx="63" cy="97" r="11.5" fill="#8FAE8B" stroke="#6B8C68" stroke-width="1.8"/><circle cx="85" cy="97" r="11.5" fill="#8FAE8B" stroke="#6B8C68" stroke-width="1.8"/><circle cx="107" cy="97" r="11.5" fill="#8FAE8B" stroke="#6B8C68" stroke-width="1.8"/><circle cx="129" cy="97" r="11.5" fill="#8FAE8B" stroke="#6B8C68" stroke-width="1.8"/><circle cx="151" cy="97" r="11.5" fill="#8FAE8B" stroke="#6B8C68" stroke-width="1.8"/><circle cx="173" cy="97" r="11.5" fill="#8FAE8B" stroke="#6B8C68" stroke-width="1.8"/><circle cx="195" cy="97" r="11.5" fill="#8FAE8B" stroke="#6B8C68" stroke-width="1.8"/><circle cx="217" cy="97" r="11.5" fill="#8FAE8B" stroke="#6B8C68" stroke-width="1.8"/><circle cx="239" cy="97" r="11.5" fill="#8FAE8B" stroke="#6B8C68" stroke-width="1.8"/><circle cx="30" cy="84" r="11.5" fill="#8FAE8B" stroke="#6B8C68" stroke-width="1.8"/><circle cx="52" cy="84" r="11.5" fill="#8FAE8B" stroke="#6B8C68" stroke-width="1.8"/><circle cx="74" cy="84" r="11.5" fill="#8FAE8B" stroke="#6B8C68" stroke-width="1.8"/><circle cx="96" cy="84" r="11.5" fill="#8FAE8B" stroke="#6B8C68" stroke-width="1.8"/><circle cx="118" cy="84" r="11.5" fill="#8FAE8B" stroke="#6B8C68" stroke-width="1.8"/><circle cx="140" cy="84" r="11.5" fill="#8FAE8B" stroke="#6B8C68" stroke-width="1.8"/><circle cx="162" cy="84" r="11.5" fill="#8FAE8B" stroke="#6B8C68" stroke-width="1.8"/><circle cx="184" cy="84" r="11.5" fill="#8FAE8B" stroke="#6B8C68" stroke-width="1.8"/><circle cx="206" cy="84" r="11.5" fill="#8FAE8B" stroke="#6B8C68" stroke-width="1.8"/><circle cx="228" cy="84" r="11.5" fill="#8FAE8B" stroke="#6B8C68" stroke-width="1.8"/><circle cx="250" cy="84" r="11.5" fill="#8FAE8B" stroke="#6B8C68" stroke-width="1.8"/><circle cx="41" cy="71" r="11.5" fill="#8FAE8B" stroke="#6B8C68" stroke-width="1.8"/><circle cx="63" cy="71" r="11.5" fill="#8FAE8B" stroke="#6B8C68" stroke-width="1.8"/><circle cx="85" cy="71" r="11.5" fill="#8FAE8B" stroke="#6B8C68" stroke-width="1.8"/><circle cx="107" cy="71" r="11.5" fill="#8FAE8B" stroke="#6B8C68" stroke-width="1.8"/><circle cx="129" cy="71" r="11.5" fill="#8FAE8B" stroke="#6B8C68" stroke-width="1.8"/><circle cx="151" cy="71" r="11.5" fill="#8FAE8B" stroke="#6B8C68" stroke-width="1.8"/><circle cx="173" cy="71" r="11.5" fill="#8FAE8B" stroke="#6B8C68" stroke-width="1.8"/><circle cx="195" cy="71" r="11.5" fill="#8FAE8B" stroke="#6B8C68" stroke-width="1.8"/><circle cx="217" cy="71" r="11.5" fill="#8FAE8B" stroke="#6B8C68" stroke-width="1.8"/><circle cx="239" cy="71" r="11.5" fill="#8FAE8B" stroke="#6B8C68" stroke-width="1.8"/><circle cx="30" cy="58" r="11.5" fill="#8FAE8B" stroke="#6B8C68" stroke-width="1.8"/><circle cx="52" cy="58" r="11.5" fill="#8FAE8B" stroke="#6B8C68" stroke-width="1.8"/><circle cx="74" cy="58" r="11.5" fill="#8FAE8B" stroke="#6B8C68" stroke-width="1.8"/><circle cx="96" cy="58" r="11.5" fill="#8FAE8B" stroke="#6B8C68" stroke-width="1.8"/><circle cx="118" cy="58" r="11.5" fill="#8FAE8B" stroke="#6B8C68" stroke-width="1.8"/><circle cx="140" cy="58" r="11.5" fill="#8FAE8B" stroke="#6B8C68" stroke-width="1.8"/><circle cx="162" cy="58" r="11.5" fill="#8FAE8B" stroke="#6B8C68" stroke-width="1.8"/><circle cx="184" cy="58" r="11.5" fill="#8FAE8B" stroke="#6B8C68" stroke-width="1.8"/><circle cx="206" cy="58" r="11.5" fill="#8FAE8B" stroke="#6B8C68" stroke-width="1.8"/><circle cx="228" cy="58" r="11.5" fill="#8FAE8B" stroke="#6B8C68" stroke-width="1.8"/><circle cx="250" cy="58" r="11.5" fill="#8FAE8B" stroke="#6B8C68" stroke-width="1.8"/></g><path d="M74,96 Q100,66 140,64 L140,74 Q106,76 84,104 Z" fill="#B0CBAB" opacity="0.5" clip-path="url(#rb)"/><path d="M111,278 L111,214 Q111,184 140,184 Q169,184 169,214 L169,278 Z" fill="#B9A587"/><path d="M115,278 L115,215 Q115,189 140,189 Q165,189 165,215 L165,278 Z" fill="#EFE6D3"/><rect x="126" y="199" width="28" height="24" rx="3" fill="url(#glow)" stroke="#B9A587" stroke-width="2.6"/><line x1="140" y1="199" x2="140" y2="223" stroke="#B9A587" stroke-width="2.6"/><line x1="126" y1="211" x2="154" y2="211" stroke="#B9A587" stroke-width="2.6"/><rect x="126" y="234" width="28" height="16" rx="3" fill="#B9A587" opacity="0.3"/><rect x="126" y="256" width="28" height="16" rx="3" fill="#B9A587" opacity="0.3"/><circle cx="157" cy="238" r="4" fill="#8a7458"/><path d="M67,229 L67,208 Q67,192 86,192 Q105,192 105,208 L105,229 Z" fill="#9A7566"/><path d="M70,226 L70,209 Q70,196 86,196 Q102,196 102,209 L102,226 Z" fill="url(#glow)"/><line x1="86" y1="196" x2="86" y2="226" stroke="#9A7566" stroke-width="3"/><rect x="64" y="227" width="44" height="6" rx="3" fill="#9A7566"/><circle cx="140" cy="167" r="16" fill="#FFD98A" opacity="0.28"/><rect x="138.5" y="150" width="3" height="6" fill="#5b5147"/><rect x="134" y="155" width="12" height="14" rx="3" fill="#5b5147"/><rect x="136" y="157" width="8" height="10" rx="2" fill="#FFF3C4"/><rect x="132.5" y="168" width="15" height="3" rx="1.5" fill="#5b5147"/><rect x="63" y="250" width="4.5" height="18" fill="#8a6a4a"/><rect x="84" y="250" width="4.5" height="18" fill="#8a6a4a"/><rect x="58" y="236" width="36" height="24" rx="4" fill="#EFE6D2" stroke="#C9BBA0" stroke-width="2"/><path d="M66,248 q5,-6 9,0 t9,0" stroke="#D98A96" stroke-width="2.4" fill="none" stroke-linecap="round"/><rect x="112" y="277" width="56" height="9" rx="3" fill="#D6D0C2"/><rect x="104" y="285" width="72" height="9" rx="3" fill="#BDB5A2"/></svg>