<svg xmlns="http://www.w3.org/2000/svg" viewBox="0 0 280 312" width="280" height="312"><defs>
  <linearGradient id="wall" x1="0" y1="0" x2="0.6" y2="1">
    <stop offset="0" stop-color="#D9CFEA"/><stop offset="1" stop-color="#C0B2DC"/></linearGradient>
  <linearGradient id="roof" x1="0" y1="0" x2="0.35" y2="1">
    <stop offset="0" stop-color="#F1EBDD"/><stop offset="1" stop-color="#C8BDA4"/></linearGradient>
  <linearGradient id="glow" x1="0" y1="0" x2="0" y2="1">
    <stop offset="0" stop-color="#FFF3C4"/><stop offset="1" stop-color="#FFD98A"/></linearGradient>
</defs><ellipse cx="140" cy="298" rx="102" ry="9" fill="#1e2b1c" opacity="0.16"/><path d="M58,278 L58,156 Q58,128 88,124 L192,124 Q222,128 222,156 L222,278 Z" fill="url(#wall)"/><rect x="58" y="262" width="164" height="16" rx="4" fill="#C9C4B8"/><rect x="66" y="266" width="16" height="8" rx="3" fill="#AFA898" opacity="0.7"/><rect x="92" y="266" width="16" height="8" rx="3" fill="#BCB4A2" opacity="0.7"/><rect x="118" y="266" width="16" height="8" rx="3" fill="#AFA898" opacity="0.7"/><rect x="144" y="266" width="16" height="8" rx="3" fill="#B5AC99" opacity="0.7"/><rect x="170" y="266" width="16" height="8" rx="3" fill="#AFA898" opacity="0.7"/><rect x="196" y="266" width="16" height="8" rx="3" fill="#AFA898" opacity="0.7"/><rect x="194" y="58" width="13" height="42" rx="3" fill="#4A4646"/><rect x="190.5" y="51" width="20" height="9" rx="4" fill="#4A4646"/><circle cx="212" cy="38" r="4.5" fill="#fff" opacity="0.4"/><circle cx="218" cy="25" r="5.5" fill="#fff" opacity="0.28"/><path d="M36,164 Q56,66 140,46 Q224,66 244,164 Q244,172 236,172 L44,172 Q36,172 36,164 Z" fill="url(#roof)"/><path d="M140,52 Q113,104 72,168" stroke="#C8BDA4" stroke-width="2.2" fill="none" opacity="0.5"/><path d="M140,52 Q126,104 106,168" stroke="#C8BDA4" stroke-width="2.2" fill="none" opacity="0.5"/><path d="M140,52 Q154,104 174,168" stroke="#C8BDA4" stroke-width="2.2" fill="none" opacity="0.5"/><path d="M140,52 Q167,104 208,168" stroke="#C8BDA4" stroke-width="2.2" fill="none" opacity="0.5"/><line x1="140" y1="52" x2="140" y2="168" stroke="#C8BDA4" stroke-width="2.2" opacity="0.5"/><path d="M82,116 Q100,70 140,58 L140,68 Q110,80 94,122 Z" fill="#FBF7EE" opacity="0.55"/><circle cx="140" cy="47" r="5.5" fill="#C8BDA4"/><circle cx="140" cy="45.5" r="2.4" fill="#FBF7EE"/><path d="M111,278 L111,214 Q111,184 140,184 Q169,184 169,214 L169,278 Z" fill="#578C89"/><path d="M115,278 L115,215 Q115,189 140,189 Q165,189 165,215 L165,278 Z" fill="#7FB3B0"/><line x1="131" y1="192" x2="131" y2="278" stroke="#578C89" stroke-width="2" opacity="0.5"/><line x1="149" y1="192" x2="149" y2="278" stroke="#578C89" stroke-width="2" opacity="0.5"/><circle cx="155" cy="236" r="4.2" fill="#E8C069"/><path d="M67,231 L67,210 Q67,194 86,194 Q105,194 105,210 L105,231 Z" fill="#8B7BA8"/><path d="M70,228 L70,211 Q70,198 86,198 Q102,198 102,211 L102,228 Z" fill="url(#glow)"/><line x1="86" y1="198" x2="86" y2="228" stroke="#8B7BA8" stroke-width="3"/><rect x="64" y="229" width="44" height="6" rx="3" fill="#8B7BA8"/><circle cx="96" cy="189" r="16" fill="#FFD98A" opacity="0.28"/><rect x="94.5" y="172" width="3" height="6" fill="#5b5147"/><rect x="90" y="177" width="12" height="14" rx="3" fill="#5b5147"/><rect x="92" y="179" width="8" height="10" rx="2" fill="#FFF3C4"/><rect x="88.5" y="190" width="15" height="3" rx="1.5" fill="#5b5147"/><rect x="63" y="250" width="4.5" height="18" fill="#8a6a4a"/><rect x="84" y="250" width="4.5" height="18" fill="#8a6a4a"/><rect x="58" y="236" width="36" height="24" rx="4" fill="#EFE6D2" stroke="#C9BBA0" stroke-width="2"/><path d="M66,248 q5,-6 9,0 t9,0" stroke="#E9A0B4" stroke-width="2.4" fill="none" stroke-linecap="round"/><rect x="112" y="277" width="56" height="9" rx="3" fill="#D6D0C2"/><rect x="104" y="285" width="72" height="9" rx="3" fill="#BDB5A2"/></svg>