<svg xmlns="http://www.w3.org/2000/svg" viewBox="0 0 280 312" width="280" height="312"><defs>
  <linearGradient id="wall" x1="0" y1="0" x2="0.6" y2="1">
    <stop offset="0" stop-color="#EFE8D8"/><stop offset="1" stop-color="#DDD2BA"/></linearGradient>
  <linearGradient id="roof" x1="0" y1="0" x2="0.35" y2="1">
    <stop offset="0" stop-color="#7FA173"/><stop offset="1" stop-color="#5E7F54"/></linearGradient>
  <linearGradient id="glow" x1="0" y1="0" x2="0" y2="1">
    <stop offset="0" stop-color="#FFF3C4"/><stop offset="1" stop-color="#FFD98A"/></linearGradient>
</defs><ellipse cx="140" cy="298" rx="102" ry="9" fill="#1e2b1c" opacity="0.16"/><clipPath id="wb"><path d="M56,278 L56,152 Q56,96 140,96 Q224,96 224,152 L224,278 Z"/></clipPath><clipPath id="rb"><path d="M34,168 Q34,58 140,58 Q246,58 246,168 L246,172 Q246,178 238,178 L226,178 Q222,132 140,132 Q58,132 54,178 L42,178 Q34,178 34,172 Z"/></clipPath><path d="M56,278 L56,152 Q56,96 140,96 Q224,96 224,152 L224,278 Z" fill="url(#wall)"/><g clip-path="url(#wb)"><rect x="52" y="148" width="24" height="11" rx="4.5" fill="#D2C5A8" opacity="0.55"/><rect x="82" y="148" width="24" height="11" rx="4.5" fill="#D2C5A8" opacity="0.55"/><rect x="112" y="148" width="24" height="11" rx="4.5" fill="#D2C5A8" opacity="0.55"/><rect x="142" y="148" width="24" height="11" rx="4.5" fill="#D2C5A8" opacity="0.55"/><rect x="172" y="148" width="24" height="11" rx="4.5" fill="#D2C5A8" opacity="0.55"/><rect x="202" y="148" width="24" height="11" rx="4.5" fill="#D2C5A8" opacity="0.55"/><rect x="66" y="165" width="24" height="11" rx="4.5" fill="#D2C5A8" opacity="0.55"/><rect x="96" y="165" width="24" height="11" rx="4.5" fill="#D2C5A8" opacity="0.55"/><rect x="126" y="165" width="24" height="11" rx="4.5" fill="#D2C5A8" opacity="0.55"/><rect x="156" y="165" width="24" height="11" rx="4.5" fill="#D2C5A8" opacity="0.55"/><rect x="186" y="165" width="24" height="11" rx="4.5" fill="#D2C5A8" opacity="0.55"/><rect x="216" y="165" width="24" height="11" rx="4.5" fill="#D2C5A8" opacity="0.55"/><rect x="52" y="182" width="24" height="11" rx="4.5" fill="#D2C5A8" opacity="0.55"/><rect x="82" y="182" width="24" height="11" rx="4.5" fill="#D2C5A8" opacity="0.55"/><rect x="112" y="182" width="24" height="11" rx="4.5" fill="#D2C5A8" opacity="0.55"/><rect x="142" y="182" width="24" height="11" rx="4.5" fill="#D2C5A8" opacity="0.55"/><rect x="172" y="182" width="24" height="11" rx="4.5" fill="#D2C5A8" opacity="0.55"/><rect x="202" y="182" width="24" height="11" rx="4.5" fill="#D2C5A8" opacity="0.55"/><rect x="66" y="199" width="24" height="11" rx="4.5" fill="#D2C5A8" opacity="0.55"/><rect x="96" y="199" width="24" height="11" rx="4.5" fill="#D2C5A8" opacity="0.55"/><rect x="126" y="199" width="24" height="11" rx="4.5" fill="#D2C5A8" opacity="0.55"/><rect x="156" y="199" width="24" height="11" rx="4.5" fill="#D2C5A8" opacity="0.55"/><rect x="186" y="199" width="24" height="11" rx="4.5" fill="#D2C5A8" opacity="0.55"/><rect x="216" y="199" width="24" height="11" rx="4.5" fill="#D2C5A8" opacity="0.55"/><rect x="52" y="216" width="24" height="11" rx="4.5" fill="#D2C5A8" opacity="0.55"/><rect x="82" y="216" width="24" height="11" rx="4.5" fill="#D2C5A8" opacity="0.55"/><rect x="112" y="216" width="24" height="11" rx="4.5" fill="#D2C5A8" opacity="0.55"/><rect x="142" y="216" width="24" height="11" rx="4.5" fill="#D2C5A8" opacity="0.55"/><rect x="172" y="216" width="24" height="11" rx="4.5" fill="#D2C5A8" opacity="0.55"/><rect x="202" y="216" width="24" height="11" rx="4.5" fill="#D2C5A8" opacity="0.55"/><rect x="66" y="233" width="24" height="11" rx="4.5" fill="#D2C5A8" opacity="0.55"/><rect x="96" y="233" width="24" height="11" rx="4.5" fill="#D2C5A8" opacity="0.55"/><rect x="126" y="233" width="24" height="11" rx="4.5" fill="#D2C5A8" opacity="0.55"/><rect x="156" y="233" width="24" height="11" rx="4.5" fill="#D2C5A8" opacity="0.55"/><rect x="186" y="233" width="24" height="11" rx="4.5" fill="#D2C5A8" opacity="0.55"/><rect x="216" y="233" width="24" height="11" rx="4.5" fill="#D2C5A8" opacity="0.55"/><rect x="52" y="250" width="24" height="11" rx="4.5" fill="#D2C5A8" opacity="0.55"/><rect x="82" y="250" width="24" height="11" rx="4.5" fill="#D2C5A8" opacity="0.55"/><rect x="112" y="250" width="24" height="11" rx="4.5" fill="#D2C5A8" opacity="0.55"/><rect x="142" y="250" width="24" height="11" rx="4.5" fill="#D2C5A8" opacity="0.55"/><rect x="172" y="250" width="24" height="11" rx="4.5" fill="#D2C5A8" opacity="0.55"/><rect x="202" y="250" width="24" height="11" rx="4.5" fill="#D2C5A8" opacity="0.55"/></g><rect x="56" y="262" width="168" height="16" rx="4" fill="#C9C4B8"/><rect x="64" y="266" width="16" height="8" rx="3" fill="#AFA898" opacity="0.7"/><rect x="90" y="266" width="16" height="8" rx="3" fill="#BCB4A2" opacity="0.7"/><rect x="116" y="266" width="16" height="8" rx="3" fill="#AFA898" opacity="0.7"/><rect x="142" y="266" width="16" height="8" rx="3" fill="#B5AC99" opacity="0.7"/><rect x="168" y="266" width="16" height="8" rx="3" fill="#AFA898" opacity="0.7"/><rect x="194" y="266" width="16" height="8" rx="3" fill="#AFA898" opacity="0.7"/><rect x="196" y="66" width="13" height="38" rx="3" fill="#4A4646"/><rect x="192.5" y="59" width="20" height="9" rx="4" fill="#4A4646"/><circle cx="214" cy="46" r="4.5" fill="#fff" opacity="0.4"/><circle cx="220" cy="33" r="5.5" fill="#fff" opacity="0.28"/><path d="M34,168 Q34,58 140,58 Q246,58 246,168 L246,172 Q246,178 238,178 L226,178 Q222,132 140,132 Q58,132 54,178 L42,178 Q34,178 34,172 Z" fill="url(#roof)"/><g clip-path="url(#rb)"><path d="M50,178 Q50,84 140,84 Q230,84 230,178" stroke="#5E7F54" stroke-width="2.6" fill="none" opacity="0.5"/><path d="M66,178 Q66,108 140,108 Q214,108 214,178" stroke="#5E7F54" stroke-width="2.6" fill="none" opacity="0.5"/></g><path d="M74,96 Q100,66 140,64 L140,74 Q106,76 84,104 Z" fill="#A2C094" opacity="0.5" clip-path="url(#rb)"/><circle cx="41" cy="171" r="8" fill="#5E7F54"/><circle cx="239" cy="171" r="8" fill="#5E7F54"/><path d="M111,278 L111,214 Q111,184 140,184 Q169,184 169,214 L169,278 Z" fill="#BFB398"/><path d="M115,278 L115,215 Q115,189 140,189 Q165,189 165,215 L165,278 Z" fill="#F4EFE2"/><rect x="126" y="199" width="28" height="24" rx="3" fill="url(#glow)" stroke="#BFB398" stroke-width="2.6"/><line x1="140" y1="199" x2="140" y2="223" stroke="#BFB398" stroke-width="2.6"/><line x1="126" y1="211" x2="154" y2="211" stroke="#BFB398" stroke-width="2.6"/><rect x="126" y="234" width="28" height="16" rx="3" fill="#BFB398" opacity="0.3"/><rect x="126" y="256" width="28" height="16" rx="3" fill="#BFB398" opacity="0.3"/><circle cx="157" cy="238" r="4" fill="#8a7458"/><path d="M67,229 L67,208 Q67,192 86,192 Q105,192 105,208 L105,229 Z" fill="#8F7C60"/><path d="M70,226 L70,209 Q70,196 86,196 Q102,196 102,209 L102,226 Z" fill="url(#glow)"/><line x1="86" y1="196" x2="86" y2="226" stroke="#8F7C60" stroke-width="3"/><rect x="64" y="227" width="44" height="6" rx="3" fill="#8F7C60"/><circle cx="140" cy="167" r="16" fill="#FFD98A" opacity="0.28"/><rect x="138.5" y="150" width="3" height="6" fill="#5b5147"/><rect x="134" y="155" width="12" height="14" rx="3" fill="#5b5147"/><rect x="136" y="157" width="8" height="10" rx="2" fill="#FFF3C4"/><rect x="132.5" y="168" width="15" height="3" rx="1.5" fill="#5b5147"/><rect x="63" y="250" width="4.5" height="18" fill="#8a6a4a"/><rect x="84" y="250" width="4.5" height="18" fill="#8a6a4a"/><rect x="58" y="236" width="36" height="24" rx="4" fill="#EFE6D2" stroke="#C9BBA0" stroke-width="2"/><path d="M66,248 q5,-6 9,0 t9,0" stroke="#7FA173" stroke-width="2.4" fill="none" stroke-linecap="round"/><rect x="112" y="277" width="56" height="9" rx="3" fill="#D6D0C2"/><rect x="104" y="285" width="72" height="9" rx="3" fill="#BDB5A2"/></svg>